<svg width="16" height="16" viewBox="0 0 16 16" fill="none" xmlns="http://www.w3.org/2000/svg">
<path d="M6.40039 3.99997C5.95856 3.99997 5.60039 4.35815 5.60039 4.79997C5.60039 5.2418 5.95856 5.59997 6.40039 5.59997L10.869 5.59998L9.8347 6.63429C9.52228 6.94671 9.52228 7.45324 9.8347 7.76566C10.1471 8.07808 10.6537 8.07808 10.9661 7.76566L13.3661 5.36566C13.5161 5.21563 13.6004 5.01215 13.6004 4.79998C13.6004 4.5878 13.5161 4.38432 13.3661 4.23429L10.9661 1.83429C10.6537 1.52187 10.1471 1.52187 9.83471 1.83429C9.52229 2.14671 9.52229 2.65324 9.83471 2.96566L10.869 3.99997L6.40039 3.99997Z" fill="#0054F8"/>
<path d="M9.60039 12C10.0422 12 10.4004 11.6418 10.4004 11.2C10.4004 10.7581 10.0422 10.4 9.60039 10.4L5.13176 10.4L6.16608 9.36566C6.4785 9.05324 6.4785 8.54671 6.16608 8.23429C5.85366 7.92187 5.34713 7.92187 5.03471 8.23429L2.6347 10.6343C2.48468 10.7843 2.40039 10.9878 2.40039 11.2C2.40039 11.4121 2.48468 11.6156 2.6347 11.7657L5.0347 14.1657C5.34712 14.4781 5.85366 14.4781 6.16607 14.1657C6.47849 13.8532 6.47849 13.3467 6.16607 13.0343L5.13176 12H9.60039Z" fill="#0054F8"/>
</svg>
