<svg width="17" height="16" viewBox="0 0 17 16" fill="none" xmlns="http://www.w3.org/2000/svg">
<path d="M7.24631 5.93424C7.37015 5.85169 7.52312 5.77789 7.69961 5.72078L7.69962 7.07917C7.52312 7.02206 7.37015 6.94826 7.24631 6.86571C6.95503 6.67151 6.89961 6.4911 6.89961 6.39998C6.89961 6.30885 6.95503 6.12844 7.24631 5.93424Z" fill="#5BC08E"/>
<path d="M9.29962 10.2792L9.29962 8.92078C9.47611 8.9779 9.62908 9.05169 9.75292 9.13425C10.0442 9.32844 10.0996 9.50886 10.0996 9.59998C10.0996 9.6911 10.0442 9.87151 9.75292 10.0657C9.62908 10.1483 9.47611 10.2221 9.29962 10.2792Z" fill="#5BC08E"/>
<path fill-rule="evenodd" clip-rule="evenodd" d="M8.49961 14.4C12.0342 14.4 14.8996 11.5346 14.8996 7.99998C14.8996 4.46535 12.0342 1.59998 8.49961 1.59998C4.96499 1.59998 2.09961 4.46535 2.09961 7.99998C2.09961 11.5346 4.96499 14.4 8.49961 14.4ZM9.29961 3.99998C9.29961 3.55815 8.94144 3.19998 8.49961 3.19998C8.05778 3.19998 7.69961 3.55815 7.69961 3.99998V4.07357C7.20233 4.16696 6.74239 4.34723 6.35879 4.60296C5.78145 4.98786 5.29961 5.60744 5.29961 6.39998C5.29961 7.19251 5.78145 7.81209 6.35879 8.19699C6.74239 8.45272 7.20234 8.633 7.69962 8.72638L7.69962 10.2794C7.38682 10.1778 7.15495 10.0255 7.02494 9.87567C6.73538 9.54196 6.23011 9.50617 5.8964 9.79573C5.56269 10.0853 5.5269 10.5906 5.81646 10.9243C6.26645 11.4429 6.94725 11.7846 7.69961 11.9261L7.69961 12C7.6996 12.4418 8.05776 12.8 8.49959 12.8C8.94142 12.8 9.2996 12.4418 9.29961 12L9.29961 11.9264C9.79689 11.833 10.2568 11.6527 10.6404 11.397C11.2178 11.0121 11.6996 10.3925 11.6996 9.59998C11.6996 8.80744 11.2178 8.18785 10.6404 7.80296C10.2568 7.54723 9.79689 7.36696 9.29961 7.27357L9.29961 5.72058C9.61241 5.82214 9.84429 5.97445 9.97429 6.12428C10.2639 6.45799 10.7691 6.49378 11.1028 6.20422C11.4365 5.91465 11.4723 5.40939 11.1828 5.07567C10.7328 4.55707 10.052 4.2153 9.29961 4.07386V3.99998Z" fill="#5BC08E"/>
</svg>
