<svg width="73" height="11" viewBox="0 0 73 11" fill="none" xmlns="http://www.w3.org/2000/svg">
<path d="M0.644 10.5V8.876H1.932V2.324H0.644V0.699999H4.676C5.992 0.699999 6.99067 1.036 7.672 1.708C8.36267 2.37067 8.708 3.36 8.708 4.676V6.524C8.708 7.84 8.36267 8.834 7.672 9.506C6.99067 10.1687 5.992 10.5 4.676 10.5H0.644ZM3.78 8.82H4.704C5.45067 8.82 5.99667 8.624 6.342 8.232C6.68733 7.84 6.86 7.28933 6.86 6.58V4.62C6.86 3.90133 6.68733 3.35067 6.342 2.968C5.99667 2.576 5.45067 2.38 4.704 2.38H3.78V8.82ZM12.4602 10.696C11.9656 10.696 11.5222 10.612 11.1302 10.444C10.7382 10.2667 10.4256 10.0147 10.1922 9.688C9.96822 9.352 9.85622 8.946 9.85622 8.47C9.85622 7.994 9.96822 7.59733 10.1922 7.28C10.4256 6.95333 10.7429 6.71067 11.1442 6.552C11.5549 6.384 12.0216 6.3 12.5442 6.3H14.4482V5.908C14.4482 5.58133 14.3456 5.31533 14.1402 5.11C13.9349 4.89533 13.6082 4.788 13.1602 4.788C12.7216 4.788 12.3949 4.89067 12.1802 5.096C11.9656 5.292 11.8256 5.54867 11.7602 5.866L10.1362 5.32C10.2482 4.96533 10.4256 4.64333 10.6682 4.354C10.9202 4.05533 11.2516 3.81733 11.6622 3.64C12.0822 3.45333 12.5909 3.36 13.1882 3.36C14.1029 3.36 14.8262 3.58867 15.3582 4.046C15.8902 4.50333 16.1562 5.166 16.1562 6.034V8.624C16.1562 8.904 16.2869 9.044 16.5482 9.044H17.1082V10.5H15.9322C15.5869 10.5 15.3022 10.416 15.0782 10.248C14.8542 10.08 14.7422 9.856 14.7422 9.576V9.562H14.4762C14.4389 9.674 14.3549 9.82333 14.2242 10.01C14.0936 10.1873 13.8882 10.346 13.6082 10.486C13.3282 10.626 12.9456 10.696 12.4602 10.696ZM12.7682 9.268C13.2629 9.268 13.6642 9.13267 13.9722 8.862C14.2896 8.582 14.4482 8.21333 14.4482 7.756V7.616H12.6702C12.3436 7.616 12.0869 7.686 11.9002 7.826C11.7136 7.966 11.6202 8.162 11.6202 8.414C11.6202 8.666 11.7182 8.87133 11.9142 9.03C12.1102 9.18867 12.3949 9.268 12.7682 9.268ZM21.2273 10.696C20.3219 10.696 19.5799 10.5 19.0013 10.108C18.4226 9.716 18.0726 9.156 17.9513 8.428L19.5753 8.008C19.6406 8.33467 19.7479 8.59133 19.8973 8.778C20.0559 8.96467 20.2473 9.1 20.4713 9.184C20.7046 9.25867 20.9566 9.296 21.2273 9.296C21.6379 9.296 21.9413 9.226 22.1373 9.086C22.3333 8.93667 22.4313 8.75467 22.4313 8.54C22.4313 8.32533 22.3379 8.162 22.1513 8.05C21.9646 7.92867 21.6659 7.83067 21.2553 7.756L20.8633 7.686C20.3779 7.59267 19.9346 7.46667 19.5333 7.308C19.1319 7.14 18.8099 6.91133 18.5673 6.622C18.3246 6.33267 18.2033 5.95933 18.2033 5.502C18.2033 4.81133 18.4553 4.284 18.9593 3.92C19.4633 3.54667 20.1259 3.36 20.9473 3.36C21.7219 3.36 22.3659 3.53267 22.8793 3.878C23.3926 4.22333 23.7286 4.676 23.8873 5.236L22.2493 5.74C22.1746 5.38533 22.0206 5.13333 21.7873 4.984C21.5633 4.83467 21.2833 4.76 20.9473 4.76C20.6113 4.76 20.3546 4.82067 20.1773 4.942C19.9999 5.054 19.9113 5.21267 19.9113 5.418C19.9113 5.642 20.0046 5.81 20.1913 5.922C20.3779 6.02467 20.6299 6.104 20.9473 6.16L21.3393 6.23C21.8619 6.32333 22.3333 6.44933 22.7533 6.608C23.1826 6.75733 23.5186 6.97667 23.7613 7.266C24.0133 7.546 24.1393 7.92867 24.1393 8.414C24.1393 9.142 23.8733 9.70667 23.3413 10.108C22.8186 10.5 22.1139 10.696 21.2273 10.696ZM25.6851 10.5V0.699999H27.4491V4.41H27.7011C27.7757 4.26067 27.8924 4.11133 28.0511 3.962C28.2097 3.81267 28.4197 3.69133 28.6811 3.598C28.9517 3.49533 29.2924 3.444 29.7031 3.444C30.2444 3.444 30.7157 3.57 31.1171 3.822C31.5277 4.06467 31.8451 4.40533 32.0691 4.844C32.2931 5.27333 32.4051 5.77733 32.4051 6.356V10.5H30.6411V6.496C30.6411 5.97333 30.5104 5.58133 30.2491 5.32C29.9971 5.05867 29.6331 4.928 29.1571 4.928C28.6157 4.928 28.1957 5.11 27.8971 5.474C27.5984 5.82867 27.4491 6.328 27.4491 6.972V10.5H25.6851ZM38.484 10.696C37.8587 10.696 37.378 10.5887 37.042 10.374C36.706 10.1593 36.4587 9.92133 36.3 9.66H36.048V10.5H34.312V0.699999H36.076V4.354H36.328C36.4307 4.186 36.566 4.02733 36.734 3.878C36.9114 3.72867 37.14 3.60733 37.42 3.514C37.7094 3.41133 38.064 3.36 38.484 3.36C39.044 3.36 39.562 3.5 40.038 3.78C40.514 4.05067 40.8967 4.452 41.186 4.984C41.4754 5.516 41.62 6.16 41.62 6.916V7.14C41.62 7.896 41.4754 8.54 41.186 9.072C40.8967 9.604 40.514 10.01 40.038 10.29C39.562 10.5607 39.044 10.696 38.484 10.696ZM37.952 9.156C38.4934 9.156 38.946 8.98333 39.31 8.638C39.674 8.28333 39.856 7.77 39.856 7.098V6.958C39.856 6.286 39.674 5.77733 39.31 5.432C38.9554 5.07733 38.5027 4.9 37.952 4.9C37.4107 4.9 36.958 5.07733 36.594 5.432C36.23 5.77733 36.048 6.286 36.048 6.958V7.098C36.048 7.77 36.23 8.28333 36.594 8.638C36.958 8.98333 37.4107 9.156 37.952 9.156ZM46.5438 10.696C45.8531 10.696 45.2324 10.556 44.6818 10.276C44.1311 9.996 43.6971 9.59 43.3798 9.058C43.0624 8.526 42.9038 7.88667 42.9038 7.14V6.916C42.9038 6.16933 43.0624 5.53 43.3798 4.998C43.6971 4.466 44.1311 4.06 44.6818 3.78C45.2324 3.5 45.8531 3.36 46.5438 3.36C47.2344 3.36 47.8551 3.5 48.4058 3.78C48.9564 4.06 49.3904 4.466 49.7078 4.998C50.0251 5.53 50.1838 6.16933 50.1838 6.916V7.14C50.1838 7.88667 50.0251 8.526 49.7078 9.058C49.3904 9.59 48.9564 9.996 48.4058 10.276C47.8551 10.556 47.2344 10.696 46.5438 10.696ZM46.5438 9.128C47.0851 9.128 47.5331 8.95533 47.8878 8.61C48.2424 8.25533 48.4198 7.75133 48.4198 7.098V6.958C48.4198 6.30467 48.2424 5.80533 47.8878 5.46C47.5424 5.10533 47.0944 4.928 46.5438 4.928C46.0024 4.928 45.5544 5.10533 45.1998 5.46C44.8451 5.80533 44.6678 6.30467 44.6678 6.958V7.098C44.6678 7.75133 44.8451 8.25533 45.1998 8.61C45.5544 8.95533 46.0024 9.128 46.5438 9.128ZM53.968 10.696C53.4734 10.696 53.03 10.612 52.638 10.444C52.246 10.2667 51.9334 10.0147 51.7 9.688C51.476 9.352 51.364 8.946 51.364 8.47C51.364 7.994 51.476 7.59733 51.7 7.28C51.9334 6.95333 52.2507 6.71067 52.652 6.552C53.0627 6.384 53.5294 6.3 54.052 6.3H55.956V5.908C55.956 5.58133 55.8534 5.31533 55.648 5.11C55.4427 4.89533 55.116 4.788 54.668 4.788C54.2294 4.788 53.9027 4.89067 53.688 5.096C53.4734 5.292 53.3334 5.54867 53.268 5.866L51.644 5.32C51.756 4.96533 51.9334 4.64333 52.176 4.354C52.428 4.05533 52.7594 3.81733 53.17 3.64C53.59 3.45333 54.0987 3.36 54.696 3.36C55.6107 3.36 56.334 3.58867 56.866 4.046C57.398 4.50333 57.664 5.166 57.664 6.034V8.624C57.664 8.904 57.7947 9.044 58.056 9.044H58.616V10.5H57.44C57.0947 10.5 56.81 10.416 56.586 10.248C56.362 10.08 56.25 9.856 56.25 9.576V9.562H55.984C55.9467 9.674 55.8627 9.82333 55.732 10.01C55.6014 10.1873 55.396 10.346 55.116 10.486C54.836 10.626 54.4534 10.696 53.968 10.696ZM54.276 9.268C54.7707 9.268 55.172 9.13267 55.48 8.862C55.7974 8.582 55.956 8.21333 55.956 7.756V7.616H54.178C53.8514 7.616 53.5947 7.686 53.408 7.826C53.2214 7.966 53.128 8.162 53.128 8.414C53.128 8.666 53.226 8.87133 53.422 9.03C53.618 9.18867 53.9027 9.268 54.276 9.268ZM59.9058 10.5V3.556H61.6418V4.34H61.8938C61.9964 4.06 62.1644 3.85467 62.3978 3.724C62.6404 3.59333 62.9204 3.528 63.2378 3.528H64.0778V5.096H63.2098C62.7618 5.096 62.3931 5.21733 62.1038 5.46C61.8144 5.69333 61.6698 6.05733 61.6698 6.552V10.5H59.9058ZM68.0105 10.696C67.4598 10.696 66.9418 10.5607 66.4565 10.29C65.9805 10.01 65.5978 9.604 65.3085 9.072C65.0191 8.54 64.8745 7.896 64.8745 7.14V6.916C64.8745 6.16 65.0191 5.516 65.3085 4.984C65.5978 4.452 65.9805 4.05067 66.4565 3.78C66.9325 3.5 67.4505 3.36 68.0105 3.36C68.4305 3.36 68.7805 3.41133 69.0605 3.514C69.3498 3.60733 69.5831 3.72867 69.7605 3.878C69.9378 4.02733 70.0731 4.186 70.1665 4.354H70.4185V0.699999H72.1825V10.5H70.4465V9.66H70.1945C70.0358 9.92133 69.7885 10.1593 69.4525 10.374C69.1258 10.5887 68.6451 10.696 68.0105 10.696ZM68.5425 9.156C69.0838 9.156 69.5365 8.98333 69.9005 8.638C70.2645 8.28333 70.4465 7.77 70.4465 7.098V6.958C70.4465 6.286 70.2645 5.77733 69.9005 5.432C69.5458 5.07733 69.0931 4.9 68.5425 4.9C68.0011 4.9 67.5485 5.07733 67.1845 5.432C66.8205 5.77733 66.6385 6.286 66.6385 6.958V7.098C66.6385 7.77 66.8205 8.28333 67.1845 8.638C67.5485 8.98333 68.0011 9.156 68.5425 9.156Z" fill="#0A0A0A"/>
</svg>
