<svg width="16" height="16" viewBox="0 0 16 16" fill="none" xmlns="http://www.w3.org/2000/svg">
<path fill-rule="evenodd" clip-rule="evenodd" d="M9.0409 0.836994C9.37393 0.941971 9.60039 1.25081 9.60039 1.59998V5.59998L12.8004 5.59998C13.0987 5.59998 13.3722 5.76595 13.51 6.03054C13.6477 6.29512 13.6268 6.61438 13.4558 6.85875L7.85578 14.8588C7.65554 15.1448 7.2929 15.268 6.95988 15.163C6.62686 15.058 6.40039 14.7492 6.40039 14.4L6.40039 10.4H3.20039C2.90209 10.4 2.62857 10.234 2.49081 9.96943C2.35305 9.70485 2.37394 9.38559 2.54501 9.14122L8.14501 1.14121C8.34525 0.855159 8.70788 0.732018 9.0409 0.836994Z" fill="#FED345"/>
</svg>
