<svg width="16" height="16" viewBox="0 0 16 16" fill="none" xmlns="http://www.w3.org/2000/svg">
<path fill-rule="evenodd" clip-rule="evenodd" d="M9.4058 1.62678C9.62758 1.68568 9.81339 1.83697 9.91601 2.04221C10.3029 2.81591 10.5916 3.28548 10.882 3.66621C11.1761 4.0516 11.4871 4.36709 11.9602 4.8402C13.0535 5.93351 13.6004 7.36808 13.6004 8.8C13.6004 10.2319 13.0535 11.6665 11.9602 12.7598C9.77325 14.9467 6.22753 14.9467 4.04059 12.7598C2.94728 11.6665 2.40039 10.2319 2.40039 8.8C2.40039 7.36808 2.94728 5.93351 4.04059 4.8402C4.26939 4.6114 4.61349 4.54295 4.91243 4.66678C5.21136 4.79061 5.40628 5.08231 5.40628 5.40588C5.40628 6.30173 5.46222 6.98434 5.72424 7.5288C5.86832 7.82819 6.09307 8.1209 6.48043 8.38209C6.57294 7.53347 6.74241 6.49956 6.97139 5.5182C7.15168 4.74554 7.37591 3.97416 7.64279 3.3309C7.77628 3.00916 7.92723 2.70281 8.09867 2.4383C8.26555 2.18084 8.47995 1.91884 8.7567 1.73434C8.94763 1.60706 9.18402 1.56788 9.4058 1.62678ZM9.69745 12.097C8.76019 13.0343 7.24059 13.0343 6.30333 12.097C5.83471 11.6284 5.60039 11.0142 5.60039 10.4C5.60039 10.4 6.30333 10.8 7.60043 10.8C7.60043 9.99997 8.00043 7.59997 8.60043 7.19998C9.00043 7.99997 9.22882 8.2343 9.69745 8.70292C10.1661 9.17155 10.4004 9.78577 10.4004 10.4C10.4004 11.0142 10.1661 11.6284 9.69745 12.097Z" fill="#FF6370"/>
</svg>
