<svg width="15" height="14" viewBox="0 0 15 14" fill="none" xmlns="http://www.w3.org/2000/svg">
<path fill-rule="evenodd" clip-rule="evenodd" d="M0.833984 7.00004C0.833984 3.32004 3.81398 0.333374 7.50065 0.333374C11.1807 0.333374 14.1673 3.32004 14.1673 7.00004C14.1673 10.6867 11.1807 13.6667 7.50065 13.6667C3.81398 13.6667 0.833984 10.6867 0.833984 7.00004ZM8.98732 8.22004L10.0673 4.80671C10.1406 4.57337 9.92732 4.35337 9.69398 4.42671L6.28065 5.49337C6.14065 5.54004 6.02732 5.64671 5.98732 5.78671L4.92065 9.20671C4.84732 9.43337 5.06732 9.65337 5.29398 9.58004L8.69398 8.51337C8.83398 8.47337 8.94732 8.36004 8.98732 8.22004Z" fill="#FF8317"/>
</svg>
