<svg width="22" height="22" viewBox="0 0 22 22" fill="none" xmlns="http://www.w3.org/2000/svg">
<path fill-rule="evenodd" clip-rule="evenodd" d="M12.6374 3.48799C12.2204 1.77061 9.778 1.77061 9.36108 3.48799C9.09175 4.59739 7.82071 5.12387 6.8458 4.52985C5.33662 3.61029 3.60956 5.33735 4.52912 6.84653C5.12314 7.82144 4.59666 9.09248 3.48725 9.36181C1.76987 9.77873 1.76987 12.2212 3.48725 12.6381C4.59666 12.9074 5.12314 14.1785 4.52912 15.1534C3.60956 16.6626 5.33662 18.3896 6.8458 17.4701C7.82071 16.876 9.09175 17.4025 9.36108 18.5119C9.778 20.2293 12.2204 20.2293 12.6374 18.5119C12.9067 17.4025 14.1777 16.876 15.1526 17.4701C16.6618 18.3896 18.3889 16.6626 17.4693 15.1534C16.8753 14.1785 17.4018 12.9074 18.5112 12.6381C20.2286 12.2212 20.2286 9.77873 18.5112 9.36181C17.4018 9.09248 16.8753 7.82144 17.4693 6.84653C18.3889 5.33735 16.6618 3.61029 15.1526 4.52985C14.1777 5.12387 12.9067 4.59739 12.6374 3.48799ZM10.9992 14.3C12.8218 14.3 14.2992 12.8225 14.2992 11C14.2992 9.17741 12.8218 7.69995 10.9992 7.69995C9.17668 7.69995 7.69922 9.17741 7.69922 11C7.69922 12.8225 9.17668 14.3 10.9992 14.3Z" fill="#98A2AE"/>
</svg>
