<svg width="22" height="22" viewBox="0 0 22 22" fill="none" xmlns="http://www.w3.org/2000/svg">
<path d="M2.19922 12.1C2.19922 11.4925 2.69171 11 3.29922 11H5.49922C6.10673 11 6.59922 11.4925 6.59922 12.1V17.6C6.59922 18.2076 6.10673 18.7 5.49922 18.7H3.29922C2.69171 18.7 2.19922 18.2076 2.19922 17.6V12.1Z" fill="#98A2AE"/>
<path d="M8.79922 7.70005C8.79922 7.09254 9.29171 6.60005 9.89922 6.60005H12.0992C12.7067 6.60005 13.1992 7.09254 13.1992 7.70005V17.6C13.1992 18.2076 12.7067 18.7 12.0992 18.7H9.89922C9.29171 18.7 8.79922 18.2076 8.79922 17.6V7.70005Z" fill="#98A2AE"/>
<path d="M15.3992 4.40005C15.3992 3.79254 15.8917 3.30005 16.4992 3.30005H18.6992C19.3067 3.30005 19.7992 3.79254 19.7992 4.40005V17.6C19.7992 18.2076 19.3067 18.7 18.6992 18.7H16.4992C15.8917 18.7 15.3992 18.2076 15.3992 17.6V4.40005Z" fill="#98A2AE"/>
</svg>
