<svg width="17" height="16" viewBox="0 0 17 16" fill="none" xmlns="http://www.w3.org/2000/svg">
<path d="M4.49961 9.60002C4.49961 10.0419 4.85778 10.4 5.29961 10.4C5.74144 10.4 6.09961 10.0419 6.09961 9.60002L6.09961 5.1314L7.13392 6.16571C7.44634 6.47813 7.95288 6.47813 8.26529 6.16571C8.57771 5.85329 8.57771 5.34676 8.2653 5.03434L5.8653 2.63434C5.71527 2.48431 5.51178 2.40002 5.29961 2.40002C5.08744 2.40002 4.88395 2.48431 4.73392 2.63434L2.33392 5.03434C2.0215 5.34676 2.0215 5.85329 2.33392 6.16571C2.64634 6.47813 3.15288 6.47813 3.46529 6.16571L4.49961 5.1314L4.49961 9.60002Z" fill="#9333EA"/>
<path d="M12.4996 6.40002C12.4996 5.9582 12.1414 5.60002 11.6996 5.60002C11.2578 5.60002 10.8996 5.9582 10.8996 6.40002L10.8996 10.8687L9.86529 9.83434C9.55288 9.52192 9.04634 9.52192 8.73392 9.83434C8.4215 10.1468 8.4215 10.6533 8.73392 10.9657L11.1339 13.3657C11.284 13.5157 11.4874 13.6 11.6996 13.6C11.9118 13.6 12.1153 13.5157 12.2653 13.3657L14.6653 10.9657C14.9777 10.6533 14.9777 10.1468 14.6653 9.83434C14.3529 9.52192 13.8463 9.52192 13.5339 9.83434L12.4996 10.8687V6.40002Z" fill="#9333EA"/>
</svg>
